<svg xmlns="http://www.w3.org/2000/svg" xmlns:xlink="http://www.w3.org/1999/xlink" width="53" height="53" viewBox="0 0 53 53"><defs><path id="iktna" d="M1193.6 512.509a4.27 4.27 0 0 0-.428 3.549l.885 2.753a2.214 2.214 0 0 1-.982 2.595l-2.453 1.456a4.268 4.268 0 0 0-2.031 2.957l-.483 2.832a2.211 2.211 0 0 1-2.083 1.848l-2.81.14a4.266 4.266 0 0 0-3.192 1.683l-1.712 2.254a2.238 2.238 0 0 1-2.713.67l-2.54-1.187a4.265 4.265 0 0 0-3.617 0l-2.54 1.186a2.237 2.237 0 0 1-2.712-.67l-1.713-2.253a4.266 4.266 0 0 0-3.192-1.683l-2.81-.14a2.211 2.211 0 0 1-2.082-1.848l-.483-2.831a4.268 4.268 0 0 0-2.031-2.958l-2.453-1.456a2.214 2.214 0 0 1-.983-2.595l.886-2.753a4.27 4.27 0 0 0-.43-3.55l-1.513-2.459a2.215 2.215 0 0 1 .334-2.75l2.047-2.017a4.27 4.27 0 0 0 1.264-3.35l-.205-2.879a2.213 2.213 0 0 1 1.577-2.288l2.71-.817a4.267 4.267 0 0 0 2.688-2.392l1.135-2.618a2.241 2.241 0 0 1 2.47-1.298l2.75.54a4.265 4.265 0 0 0 3.508-.87l2.19-1.767a2.237 2.237 0 0 1 2.795 0l2.189 1.768a4.266 4.266 0 0 0 3.509.869l2.75-.54a2.238 2.238 0 0 1 2.47 1.298l1.133 2.617a4.267 4.267 0 0 0 2.69 2.393l2.71.817a2.213 2.213 0 0 1 1.576 2.288l-.205 2.88a4.269 4.269 0 0 0 1.264 3.35l2.047 2.015c.743.732.88 1.863.334 2.751zm3.26-1.385a4.255 4.255 0 0 0-.64-5.286l-2.047-2.017a2.222 2.222 0 0 1-.658-1.743l.205-2.88a4.252 4.252 0 0 0-3.03-4.396l-2.71-.817a2.22 2.22 0 0 1-1.4-1.246l-1.134-2.617a4.3 4.3 0 0 0-4.746-2.494l-2.75.54a2.22 2.22 0 0 1-1.825-.453l-2.19-1.767a4.298 4.298 0 0 0-5.37 0l-2.19 1.767a2.22 2.22 0 0 1-1.826.452l-2.75-.54a4.301 4.301 0 0 0-4.746 2.495l-1.135 2.618a2.22 2.22 0 0 1-1.398 1.245l-2.71.817a4.252 4.252 0 0 0-3.03 4.397l.205 2.88a2.222 2.222 0 0 1-.658 1.742l-2.047 2.017a4.255 4.255 0 0 0-.64 5.286l1.513 2.46c.34.553.422 1.227.223 1.846l-.885 2.754a4.254 4.254 0 0 0 1.887 4.985l2.453 1.456c.562.333.947.895 1.057 1.539l.483 2.832a4.25 4.25 0 0 0 4.002 3.551l2.81.14a2.22 2.22 0 0 1 1.66.875l1.713 2.254a4.296 4.296 0 0 0 5.213 1.287l2.54-1.186a2.22 2.22 0 0 1 1.882 0l2.54 1.186a4.299 4.299 0 0 0 5.212-1.287l1.713-2.253a2.22 2.22 0 0 1 1.66-.876l2.81-.14a4.25 4.25 0 0 0 4.003-3.552l.483-2.831a2.22 2.22 0 0 1 1.057-1.54l2.453-1.456a4.254 4.254 0 0 0 1.887-4.984l-.885-2.754c-.2-.62-.118-1.293.223-1.847z"/><path id="iktnb" d="M1184.57 513.302h-8.347c-.607 0-1.1-.493-1.1-1.1 0-.607.493-1.1 1.1-1.1h8.347c.607 0 1.1.493 1.1 1.1 0 .607-.493 1.1-1.1 1.1zm-8.347 4.252c-.607 0-1.1-.494-1.1-1.1 0-.608.493-1.101 1.1-1.101h6.601c.607 0 1.1.494 1.1 1.1 0 .607-.493 1.1-1.1 1.1zm5.562 4.251h-5.471a1.102 1.102 0 0 1 0-2.2h5.471a1.102 1.102 0 0 1 0 2.2zm-5.562-14.955h6.601a1.102 1.102 0 0 1 0 2.201h-6.601c-.607 0-1.1-.493-1.1-1.1 0-.607.493-1.1 1.1-1.1zm-2.156-4.518l-.934 4.999v.005c-.025.124-.042.25-.051.38l-.439 1.481a4.49 4.49 0 0 1-4.28 3.198 1.025 1.025 0 1 0 0 2.05 6.54 6.54 0 0 0 4.717-2.034c.048.736.35 1.404.82 1.917a3.139 3.139 0 0 0 .047 4.3 3.137 3.137 0 0 0-.586 3.177h-3.346a6.356 6.356 0 0 1-3.75-1.216l-1.484-1.074v-11.997l1.804-.982a7.773 7.773 0 0 0 3.595-4.185l1.459-4.033a3.518 3.518 0 0 1 2.428 4.014zm-17.238 19.473V506.85h1.926v8.257a1.025 1.025 0 1 0 2.05 0v-8.257h1.886c-.01.126.002.254.04.378v14.577zm30.892-9.603a3.156 3.156 0 0 0-2.03-2.944 3.13 3.13 0 0 0 .284-1.307 3.154 3.154 0 0 0-3.15-3.151h-6.602a3.15 3.15 0 0 0-.54.047l.4-2.138a5.566 5.566 0 0 0-3.856-6.355l-.923-.28a1.025 1.025 0 0 0-1.262.632l-1.79 4.947a5.725 5.725 0 0 1-2.648 3.082l-1.357.74a2.043 2.043 0 0 0-1.516-.675h-5.902c-1.13 0-2.05.92-2.05 2.05v14.955c0 1.13.92 2.05 2.05 2.05h5.902c1.052 0 1.92-.796 2.036-1.818l.295.213a8.394 8.394 0 0 0 4.953 1.605h11.77a3.154 3.154 0 0 0 3.15-3.15c0-.58-.157-1.122-.43-1.589a3.15 3.15 0 0 0 1.185-3.97 3.156 3.156 0 0 0 2.031-2.944z"/></defs><g><g transform="translate(-1145 -485)"><use fill="#333" xlink:href="#iktna"/></g><g transform="translate(-1145 -485)"><use fill="#333" xlink:href="#iktnb"/></g></g></svg>