<svg xmlns="http://www.w3.org/2000/svg" xmlns:xlink="http://www.w3.org/1999/xlink" width="53" height="42" viewBox="0 0 53 42"><defs><path id="87hza" d="M1194 450.25v-9.228a3.475 3.475 0 0 0 1.75-2.913v12.141zm-1.75-10.5h-3.5a.875.875 0 0 0 0 1.75h1.75a1.75 1.75 0 1 1 0 3.5h-3.5a.875.875 0 0 0 0 1.75h1.75a1.75 1.75 0 1 1 0 3.5h-3.5a.875.875 0 0 0 0 1.75h1.75a1.75 1.75 0 1 1 0 3.5h-13.052l-9.698-1.616V436.25h5.25c.136 0 .27-.031.391-.092l5.734-2.867v2.084c0 .483.392.875.875.875h15.75a1.75 1.75 0 1 1 0 3.5zm0 14h-1.75c0-.693-.206-1.371-.592-1.947a3.501 3.501 0 0 0 2.342-3.263zm-.198-6.408a3.502 3.502 0 0 0-.394-.789c.206-.074.404-.168.592-.28v2.188a3.496 3.496 0 0 0-.198-1.119zm.198 1.119v.08zm-3.5-21.11v7.149h-7.875v-7.15a2.64 2.64 0 0 0 1.6-1.6h4.675a2.64 2.64 0 0 0 1.6 1.6zm-11.375-5.101h14.875v12.25h-1.75v-7.875a.875.875 0 0 0-.875-.875.875.875 0 0 1-.875-.875.875.875 0 0 0-.875-.875h-6.125a.875.875 0 0 0-.875.875.875.875 0 0 1-.875.875.875.875 0 0 0-.875.875v7.875h-1.75zm3.5-3.5h14.875v19.149a3.477 3.477 0 0 0-1.75-2.914v-13.61a.875.875 0 0 0-.875-.875h-12.25zm-18.375 38.5h-15.75v-21h15.75zm34.125-40.25H1180a.875.875 0 0 0-.875.875v2.625h-2.625a.875.875 0 0 0-.875.875v9.96l-6.332 3.165h-23.418a.875.875 0 0 0-.875.875v22.75c0 .483.392.875.875.875h17.5a.875.875 0 0 0 .875-.875v-2.468l9.48 1.58a.9.9 0 0 0 .145.013H1187a3.489 3.489 0 0 0 3.014-1.75h3.111a.875.875 0 0 0 .875-.875V452h2.625a.875.875 0 0 0 .875-.875v-33.25a.875.875 0 0 0-.875-.875z"/></defs><g><g transform="translate(-1145 -417)"><use fill="#333" xlink:href="#87hza"/></g></g></svg>