<svg xmlns="http://www.w3.org/2000/svg" xmlns:xlink="http://www.w3.org/1999/xlink" width="14" height="17" viewBox="0 0 14 17"><defs><path id="94k6a" d="M1393.265 98.281v-2.3l-.248-.09c-.18-.09-.327-.18-.507-.27a2.795 2.795 0 0 1-.553-.373 3.402 3.402 0 0 1-.451-.45c-.79-.88-1.15-2.335-1.218-3.823-.09-1.793.214-3.676.733-4.59.214-.36.485-.687.812-.992.304-.281.677-.518 1.094-.732 1.093-.542 2.616-.824 4.104-.824 1.601 0 3.214.282 4.307.767.936.417 1.545.97 1.94 1.76.394.72.575 1.634.665 2.762.09 1.026.09 2.176-.124 3.247-.18.936-.485 1.782-.97 2.39-1.364 1.737-4.454 1.76-5.908 1.793h-.496s-.113.124-.271.237c-.27.282-.575.609-.7.733-.236.304-.54.575-.788.846a2.522 2.522 0 0 1-.361.338l-1.06 1.127v-1.556zm1.218-2.66l.022 1.172.034-.056c.147-.18.485-.542.79-.823.236-.237.484-.418.665-.508.18-.068.484-.068.947-.09 1.24 0 3.935-.068 4.938-1.342.361-.417.576-1.094.733-1.815.18-.947.18-2.007.113-2.92-.09-.97-.237-1.726-.541-2.3-.27-.52-.7-.914-1.33-1.219-.948-.394-2.368-.631-3.823-.631-1.308 0-2.616.214-3.552.7a5.346 5.346 0 0 0-.823.506 3.303 3.303 0 0 0-.575.733c-.395.7-.643 2.3-.541 3.857.056 1.24.327 2.458.88 3.09.09.09.202.213.326.337.124.057.248.147.361.237.158.068.305.124.462.214.215.09.418.18.632.305l.282.18v.372z"/><path id="94k6b" d="M1394.2 86.668c-.574.112-1.025.507-1.15 1.026-.18.609.181 1.217.395 1.702.519 1.094 1.094 1.816 1.76 2.549.789.879 2.762 2.3 3.89 2.582.63.18 1.24-.372 1.454-.643.699-.913.214-1.184-.7-1.85-.642-.45-1.15-.845-1.736 0-.45.643-1.387-.146-1.781-.45-.395-.305-1.342-1.466-.97-2.041.327-.541 1.274-.327.057-1.996-.271-.428-.7-1.003-1.218-.88z"/><path id="94k6c" d="M1396.907 86.882c.147.09.575.113.812.18.248.057.552.147.767.237 1.398.575 1.792 1.703 1.905 3.1.034.362.429.362.429-.09-.034-1.95-1.432-3.551-3.282-3.732-.327-.033-.755-.124-.631.305z"/></defs><g><g transform="translate(-1390 -83)"><use fill="#8c56b8" xlink:href="#94k6a"/></g><g transform="translate(-1390 -83)"><use fill="#8c56b8" xlink:href="#94k6b"/></g><g transform="translate(-1390 -83)"><use fill="#8c56b8" xlink:href="#94k6c"/></g></g></svg>